# xmcd
#
# Track frame offsets:
#	150
#	25110
#	36761
#	69659
#	81649
#	103137
#	116624
#	129600
#	149673
#	164026
#	181342
#	193950
#	211467
#	234770
#	248806
#	264385
#	286965
#
# Disc length: 4185 seconds
#
# Revision: 5
# Processed by: cddbd v1.5.1PL0 Copyright (c) Steve Scherf et al.
# Submitted via: audiograbber 1.83.01
#
DISCID=07105711
DTITLE=Various Artist - Blues Forever
DYEAR=2000
DGENRE=Blues
TTITLE0=John Lee Hooker feat. Carlos Santana - The Healer
TTITLE1=Howlin' Wolf - Howlin' For My Baby
TTITLE2=Albert King - I'll Play The Blues For You
TTITLE3=Big Bill Broonzy and Washboard Sam - Never Never
TTITLE4=Licky Peterson - Who's Been Talkin ?
TTITLE5=Memphis Slims - Slim's Blues
TTITLE6=J.J.Cale - Cocaine
TTITLE7=The Notting Hillbillies - Your Own Sweet Way
TTITLE8=Etta James - Leave Your Hat On
TTITLE9=The Jeff Healey Band - While My Guitar Gentley Weeps
TTITLE10=Lowell Fulson - It's A Long Time
TTITLE11=Ray Charles - Strong Love Affair
TTITLE12=The Santana Band - One With You
TTITLE13=The Paul Butterfield Blues Band - Born In Chicago
TTITLE14=B.B.King - Blues Boys Tune
TTITLE15=Stewe Ray Vaughan and The Double Trouble - Dirty Pool
TTITLE16=Peter Green - Just Another Guy
EXTD=
EXTT0=
EXTT1=
EXTT2=
EXTT3=
EXTT4=
EXTT5=
EXTT6=
EXTT7=
EXTT8=
EXTT9=
EXTT10=
EXTT11=
EXTT12=
EXTT13=
EXTT14=
EXTT15=
EXTT16=
PLAYORDER=
